<?xml version="1.0" standalone="no"?>
<!DOCTYPE svg PUBLIC "-//W3C//DTD SVG 20010904//EN"
 "http://www.w3.org/TR/2001/REC-SVG-20010904/DTD/svg10.dtd">
<svg version="1.0" xmlns="http://www.w3.org/2000/svg"
 width="120.000000pt" height="120.000000pt" viewBox="0 0 120.000000 120.000000"
 preserveAspectRatio="xMidYMid meet">

<g transform="translate(0.000000,120.000000) scale(0.100000,-0.100000)"
fill="#000000" stroke="none">
<path d="M452 1180 c-109 -29 -187 -74 -272 -160 -87 -86 -131 -163 -160 -276
-36 -141 -18 -294 52 -427 44 -85 165 -205 247 -246 137 -69 285 -87 425 -51
112 28 190 73 277 160 87 85 130 160 160 278 35 139 16 293 -53 425 -42 81
-164 203 -245 245 -132 69 -291 88 -431 52z m271 -25 c251 -53 447 -296 447
-555 0 -263 -192 -501 -447 -555 -260 -55 -515 68 -632 305 -209 427 165 904
632 805z"/>
<path d="M674 636 l-130 -124 -74 54 -74 54 -23 -28 c-12 -15 -22 -30 -23 -33
0 -3 45 -38 100 -78 l100 -73 128 120 c70 66 140 134 156 151 l30 31 -24 25
c-13 14 -26 25 -29 25 -3 0 -65 -56 -137 -124z"/>
</g>
</svg>
