<?xml version="1.0" standalone="no"?>
<!DOCTYPE svg PUBLIC "-//W3C//DTD SVG 20010904//EN"
 "http://www.w3.org/TR/2001/REC-SVG-20010904/DTD/svg10.dtd">
<svg version="1.0" xmlns="http://www.w3.org/2000/svg"
 width="120.000000pt" height="120.000000pt" viewBox="0 0 120.000000 120.000000"
 preserveAspectRatio="xMidYMid meet">

<g transform="translate(0.000000,120.000000) scale(0.100000,-0.100000)"
fill="#000000" stroke="none">
<path d="M491 1189 c-288 -48 -508 -332 -487 -628 12 -155 67 -274 180 -386
161 -160 396 -214 607 -141 100 35 155 70 234 150 160 161 214 396 141 607
-35 100 -70 155 -150 234 -141 139 -326 197 -525 164z m301 -51 c181 -67 316
-218 364 -408 23 -90 15 -231 -19 -322 -66 -181 -217 -316 -407 -364 -90 -23
-231 -15 -322 19 -181 66 -316 217 -364 407 -23 90 -15 231 19 322 64 176 213
312 397 363 83 23 246 14 332 -17z"/>
<path d="M397 803 l-27 -28 92 -92 93 -93 -88 -88 -88 -88 26 -24 26 -24 87
87 87 87 85 -85 84 -85 28 27 28 27 -85 86 -85 85 87 87 87 87 -24 26 -24 26
-88 -88 -88 -88 -93 93 -92 92 -28 -27z"/>
</g>
</svg>
